<svg width="62" height="35" viewBox="0 0 62 35" fill="none" xmlns="http://www.w3.org/2000/svg">
<rect width="62" height="35" fill="white"/>
<path d="M14.596 21H13.312V14.124H10.144V12.96H17.752V14.124H14.596V21ZM20.3102 21.08C19.0062 21.08 18.1502 20.344 18.1502 19.016C18.1502 17.776 18.9982 16.944 20.2942 16.944C21.5262 16.944 22.3662 17.624 22.3662 18.832C22.3662 18.976 22.3582 19.088 22.3342 19.208H18.9582C18.9902 19.976 19.3662 20.384 20.2862 20.384C21.1182 20.384 21.4622 20.112 21.4622 19.64V19.576H22.3262V19.648C22.3262 20.496 21.4942 21.08 20.3102 21.08ZM20.2782 17.624C19.3982 17.624 19.0142 18.016 18.9662 18.728H21.5502V18.712C21.5502 17.976 21.1262 17.624 20.2782 17.624ZM24.1813 21.08C23.3573 21.08 22.8373 20.696 22.8373 20.04C22.8373 19.424 23.3333 19.104 24.1173 19.016L25.9253 18.824V18.592C25.9253 17.936 25.6373 17.704 24.8773 17.704C24.1413 17.704 23.7813 17.944 23.7813 18.528V18.56H22.9253V18.528C22.9253 17.624 23.6773 16.944 24.9413 16.944C26.2053 16.944 26.7733 17.632 26.7733 18.584V21H25.9813V20.008H25.9253C25.7173 20.68 25.0853 21.08 24.1813 21.08ZM23.7013 19.984C23.7013 20.304 23.9173 20.456 24.4133 20.456C25.3173 20.456 25.9253 20.12 25.9253 19.336L24.3653 19.512C23.9173 19.568 23.7013 19.672 23.7013 19.984ZM28.4085 21H27.5445V17.024H28.3365V18.224H28.3845C28.4885 17.56 28.9205 16.944 29.9125 16.944C30.8165 16.944 31.3045 17.496 31.4165 18.256H31.4645C31.5685 17.576 32.0165 16.944 33.0245 16.944C34.0565 16.944 34.5765 17.648 34.5765 18.608V21H33.7205V18.84C33.7205 18.056 33.4085 17.72 32.6405 17.72C31.7925 17.72 31.4885 18.152 31.4885 19.032V21H30.6325V18.84C30.6325 18.056 30.3285 17.72 29.5605 17.72C28.7045 17.72 28.4085 18.152 28.4085 19.032V21ZM36.8452 21H35.5492V12.96H36.8452V21ZM38.7093 21H37.8453V17.024H38.6373V18.256H38.6933C38.8133 17.584 39.3413 16.944 40.3493 16.944C41.4533 16.944 41.9973 17.688 41.9973 18.608V21H41.1333V18.84C41.1333 18.096 40.7973 17.72 39.9733 17.72C39.1013 17.72 38.7093 18.168 38.7093 19.032V21ZM45.3752 21H44.4632C43.6072 21 43.0792 20.624 43.0792 19.656V17.744H42.4072V17.024H43.0792V16.152H43.9352V17.024H45.3752V17.744H43.9352V19.608C43.9352 20.096 44.1592 20.224 44.6552 20.224H45.3752V21ZM47.9156 21.08C46.6116 21.08 45.7556 20.344 45.7556 19.016C45.7556 17.776 46.6036 16.944 47.8996 16.944C49.1316 16.944 49.9716 17.624 49.9716 18.832C49.9716 18.976 49.9636 19.088 49.9396 19.208H46.5636C46.5956 19.976 46.9716 20.384 47.8916 20.384C48.7236 20.384 49.0676 20.112 49.0676 19.64V19.576H49.9316V19.648C49.9316 20.496 49.0996 21.08 47.9156 21.08ZM47.8836 17.624C47.0036 17.624 46.6196 18.016 46.5716 18.728H49.1556V18.712C49.1556 17.976 48.7316 17.624 47.8836 17.624ZM51.4828 21H50.6188V15.64H51.4828V21Z" fill="#FA871D"/>
</svg>
